# Blender 4.2.3 LTS
# www.blender.org
mtllib crab.mtl
o Cube
v -0.475050 0.261086 0.472587
v -0.483449 0.112324 0.472587
v -0.475050 0.261086 -0.472587
v 0.000000 0.001838 0.325310
v -0.831556 0.194531 -0.472587
v -0.817344 -0.017146 -0.470312
v -0.831493 0.050244 0.118636
v -0.831556 0.194531 0.125102
v -1.033909 0.192963 -0.100684
v -1.026691 0.103600 -0.100684
v -1.334703 0.190634 0.046983
v -1.316850 0.159117 0.046983
v -0.475050 0.244025 -0.762452
v -0.483449 0.064186 -0.802849
v 0.000000 0.023418 0.472587
v 0.000000 0.279081 -0.472587
v 0.000000 -0.115076 -0.472587
v 0.000000 0.279081 0.472587
v 0.000000 0.262020 -0.762452
v 0.000000 -0.039504 -0.762452
v -0.273450 0.056236 0.472587
v -0.483449 -0.113507 0.132243
v -0.191701 -0.040445 -0.778193
v -0.483449 -0.126866 -0.059957
v -0.522234 -0.033451 0.058148
v -0.483449 -0.144075 -0.307557
v -0.483449 -0.129664 -0.100226
v -0.523416 -0.070210 -0.196964
v -0.739165 0.207357 -0.547707
v -0.831493 0.010744 -0.092412
v -0.369600 -0.051576 0.316757
v -0.442463 0.000388 0.213407
v -0.385826 0.072796 0.418228
v -0.483449 -0.149518 -0.385878
v -0.351322 -0.103419 -0.610990
v -0.453570 -0.070474 -0.436598
v -0.397291 -0.019514 -0.565587
v 0.000000 -0.096374 -0.344955
v 0.000000 -0.055723 -0.067522
v 0.000000 -0.074985 -0.198978
v 0.000000 -0.019925 0.176783
v 0.000000 -0.039593 0.042556
v -0.785093 -0.197559 -0.213634
v -0.841804 -0.137238 -0.550439
v -0.849741 -0.027449 -0.466270
v -0.797761 -0.094130 -0.289611
v -0.986702 -0.104057 -0.085288
v -1.011804 -0.110649 0.026874
v -1.010367 -0.066090 -0.022712
v -1.013921 -0.135703 0.116506
v -1.017987 -0.142193 0.215021
v -1.023749 -0.092600 0.182882
v -0.538682 -0.092295 0.372012
v -0.652531 -0.154226 0.187498
v -0.611545 -0.040332 0.268662
v -0.464748 0.052521 0.627429
v -0.560899 -0.055290 0.471599
v -0.577124 0.069081 0.573071
v -0.958418 -0.133540 0.347978
v -0.986988 -0.174218 0.208466
v -0.980030 -0.099409 0.267782
v -1.069691 -0.147042 0.360374
v -1.171961 -0.187720 0.261274
v -1.132764 -0.112911 0.306334
v -1.350543 -0.176288 0.512742
v -1.452812 -0.216966 0.413642
v -1.413615 -0.142158 0.458702
v -1.446581 -0.215597 0.914729
v -1.090539 -0.129196 0.937190
v -0.826159 -0.038427 1.099942
v -1.173854 -0.159583 0.108333
v -1.177920 -0.166073 0.206848
v -1.183682 -0.116480 0.174708
v -1.577624 -0.208643 -0.011848
v -1.581689 -0.215133 0.086668
v -1.587452 -0.165539 0.054528
v -1.935717 -0.204471 -0.152515
v -1.168442 -0.164055 -0.165137
v -1.193544 -0.170647 -0.052975
v -1.192107 -0.126088 -0.102561
v -1.547825 -0.267280 -0.382503
v -1.572928 -0.273872 -0.270340
v -1.571491 -0.229313 -0.319927
v -1.936399 -0.345264 -0.636397
v -0.721466 0.050605 0.698978
v -0.848124 -0.091415 0.493704
v -0.803098 0.073828 0.660380
v -0.795478 0.037513 0.881238
v -0.899429 -0.017649 0.723787
v -0.887179 0.049353 0.776987
v -1.049722 -0.215071 -0.234785
v -1.008865 -0.158758 -0.551005
v -1.038822 -0.056266 -0.477987
v -1.040394 -0.118515 -0.306085
v -1.217381 -0.200284 -0.295610
v -1.096794 -0.162959 -0.469168
v -1.136712 -0.095026 -0.435358
v -1.190123 -0.136285 -0.334708
v -1.292553 -0.219679 -0.633066
v -1.067476 -0.179926 -0.635092
v -1.121434 -0.107573 -0.648975
v -1.241792 -0.151517 -0.633442
v -1.304150 -0.254209 -0.938835
v -0.981508 -0.197212 -0.946034
v -1.059129 -0.093474 -0.964908
v -1.231384 -0.156480 -0.940342
v -1.035334 -0.018943 1.008057
v -1.025735 -0.193459 1.369867
v -0.728930 -0.188590 1.460928
v -0.954487 -0.187545 1.424580
v -1.083397 -0.215211 -0.943761
v -1.111043 -0.112463 -0.957504
v -1.070969 -0.247578 -1.502359
v -1.105873 -0.246559 -1.540503
v 0.475050 0.261086 0.472587
v 0.483449 0.112324 0.472587
v 0.475050 0.261086 -0.472587
v 0.831556 0.194531 -0.472587
v 0.817344 -0.017146 -0.470312
v 0.831493 0.050244 0.118636
v 0.831556 0.194531 0.125102
v 1.033909 0.192963 -0.100684
v 1.026691 0.103600 -0.100684
v 1.334703 0.190634 0.046983
v 1.316850 0.159117 0.046983
v 0.475050 0.244025 -0.762452
v 0.483449 0.064186 -0.802849
v 0.273450 0.056236 0.472587
v 0.483449 -0.113507 0.132243
v 0.191701 -0.040445 -0.778193
v 0.483449 -0.126866 -0.059957
v 0.522234 -0.033451 0.058148
v 0.483449 -0.144075 -0.307557
v 0.483449 -0.129664 -0.100226
v 0.523416 -0.070210 -0.196964
v 0.739165 0.207357 -0.547707
v 0.831493 0.010744 -0.092412
v 0.369600 -0.051576 0.316757
v 0.442463 0.000388 0.213407
v 0.385826 0.072796 0.418228
v 0.483449 -0.149518 -0.385878
v 0.351322 -0.103419 -0.610990
v 0.453570 -0.070474 -0.436598
v 0.397291 -0.019514 -0.565587
v 0.785093 -0.197559 -0.213634
v 0.841804 -0.137238 -0.550439
v 0.849741 -0.027449 -0.466270
v 0.797761 -0.094130 -0.289611
v 0.986702 -0.104057 -0.085288
v 1.011804 -0.110649 0.026874
v 1.010367 -0.066090 -0.022712
v 1.013921 -0.135703 0.116506
v 1.017987 -0.142193 0.215021
v 1.023749 -0.092600 0.182882
v 0.538682 -0.092295 0.372012
v 0.652531 -0.154226 0.187498
v 0.611545 -0.040332 0.268662
v 0.464748 0.052521 0.627429
v 0.560899 -0.055290 0.471599
v 0.577124 0.069081 0.573071
v 0.958418 -0.133540 0.347978
v 0.986988 -0.174218 0.208466
v 0.980030 -0.099409 0.267782
v 1.069691 -0.147042 0.360374
v 1.171961 -0.187720 0.261274
v 1.132764 -0.112911 0.306334
v 1.350543 -0.176288 0.512742
v 1.452812 -0.216966 0.413642
v 1.413615 -0.142158 0.458702
v 1.446581 -0.215597 0.914729
v 1.090539 -0.129196 0.937190
v 0.826159 -0.038427 1.099942
v 1.173854 -0.159583 0.108333
v 1.177920 -0.166073 0.206848
v 1.183682 -0.116480 0.174708
v 1.577624 -0.208643 -0.011848
v 1.581689 -0.215133 0.086668
v 1.587452 -0.165539 0.054528
v 1.935717 -0.204471 -0.152515
v 1.168442 -0.164055 -0.165137
v 1.193544 -0.170647 -0.052975
v 1.192107 -0.126088 -0.102561
v 1.547825 -0.267280 -0.382503
v 1.572928 -0.273872 -0.270340
v 1.571491 -0.229313 -0.319927
v 1.936399 -0.345264 -0.636397
v 0.721466 0.050605 0.698978
v 0.848124 -0.091415 0.493704
v 0.803098 0.073828 0.660380
v 0.795478 0.037513 0.881238
v 0.899429 -0.017649 0.723787
v 0.887179 0.049353 0.776987
v 1.049722 -0.215071 -0.234785
v 1.008865 -0.158758 -0.551005
v 1.038822 -0.056266 -0.477987
v 1.040394 -0.118515 -0.306085
v 1.217381 -0.200284 -0.295610
v 1.096794 -0.162959 -0.469168
v 1.136712 -0.095026 -0.435358
v 1.190123 -0.136285 -0.334708
v 1.292553 -0.219679 -0.633066
v 1.067476 -0.179926 -0.635092
v 1.121434 -0.107573 -0.648975
v 1.241792 -0.151517 -0.633442
v 1.304150 -0.254209 -0.938835
v 0.981508 -0.197212 -0.946034
v 1.059129 -0.093474 -0.964908
v 1.231384 -0.156480 -0.940342
v 1.035334 -0.018943 1.008057
v 1.025735 -0.193459 1.369867
v 0.728930 -0.188590 1.460928
v 0.954487 -0.187545 1.424580
v 1.083397 -0.215211 -0.943761
v 1.111043 -0.112463 -0.957504
v 1.070969 -0.247578 -1.502359
v 1.105873 -0.246559 -1.540503
vn -0.1179 -0.9825 0.1440
vn -0.0000 -0.0000 1.0000
vn -0.7059 0.0045 0.7083
vn -0.0077 1.0000 -0.0000
vn -0.1835 0.9830 -0.0000
vn 0.8768 0.0660 0.4762
vn 0.4518 0.0937 0.8872
vn 0.1550 0.0521 -0.9865
vn 0.3409 0.9395 -0.0326
vn 0.0379 -0.9831 -0.1791
vn 0.6258 0.0504 0.7783
vn -0.1832 0.9814 -0.0578
vn 0.0520 0.0755 -0.9958
vn -0.0378 0.9976 -0.0587
vn -0.0379 0.9993 -0.0000
vn -0.0545 0.8762 0.4789
vn -0.4693 -0.7994 -0.3751
vn -0.2297 0.7524 -0.6173
vn -0.1979 0.7887 -0.5821
vn 0.6815 -0.0793 0.7275
vn -0.2336 -0.9703 0.0629
vn -0.2242 -0.9579 0.1793
vn -0.1963 -0.9177 0.3453
vn -0.2068 -0.9683 0.1405
vn -0.8287 -0.4147 0.3758
vn -0.2510 -0.9396 0.2326
vn 0.0840 0.9883 0.1275
vn -0.8889 -0.0066 0.4581
vn -0.8833 -0.4642 0.0657
vn -0.0820 -0.9376 -0.3380
vn -0.3814 -0.9198 -0.0923
vn -0.1372 0.9224 0.3610
vn 0.0960 -0.9849 0.1443
vn 0.1032 -0.9923 0.0690
vn 0.1463 -0.9869 0.0686
vn 0.1260 -0.9896 0.0688
vn 0.1082 -0.9836 0.1441
vn 0.1401 -0.9797 0.1435
vn 0.1754 -0.9741 0.1427
vn 0.1463 -0.9788 0.1434
vn 0.1632 -0.9842 0.0684
vn 0.3327 0.5165 0.7890
vn 0.1552 -0.9693 0.1906
vn 0.1105 -0.8479 0.5184
vn -0.1653 0.5162 -0.8404
vn 0.0488 -0.9825 -0.1795
vn 0.0741 0.9303 0.3591
vn -0.0461 0.8462 -0.5309
vn 0.1786 0.8236 0.5384
vn -0.0502 -0.9985 0.0205
vn -0.0955 0.8283 -0.5520
vn 0.0958 0.6504 0.7536
vn 0.0411 -0.9989 0.0242
vn -0.1259 0.8717 0.4737
vn -0.3744 0.6237 -0.6861
vn 0.2770 -0.9495 0.1478
vn 0.0841 0.9675 0.2384
vn -0.5576 0.4799 -0.6774
vn 0.3320 -0.8591 0.3895
vn 0.0580 -0.9608 -0.2710
vn -0.0033 0.8905 0.4549
vn -0.0911 0.6094 -0.7876
vn 0.0768 -0.9597 0.2702
vn 0.1315 0.9002 0.4151
vn -0.2527 0.6048 -0.7552
vn 0.1421 -0.9581 0.2488
vn 0.3495 0.9207 0.1735
vn -0.4231 0.6198 -0.6609
vn 0.2015 -0.9615 0.1868
vn 0.2923 -0.9065 -0.3046
vn -0.8881 0.4595 0.0098
vn 0.3713 -0.9285 -0.0021
vn 0.0578 0.8412 -0.5377
vn -0.1220 0.5298 0.8393
vn 0.1504 -0.9869 -0.0588
vn 0.2102 0.8339 -0.5104
vn -0.3027 0.4933 0.8155
vn 0.1378 -0.9887 -0.0594
vn -0.4963 0.4308 0.7537
vn 0.0140 -0.9978 -0.0651
vn 0.0536 0.8626 -0.5031
vn -0.4738 0.6618 0.5810
vn 0.3083 -0.9512 0.0131
vn 0.1364 0.8690 -0.4757
vn -0.5032 0.6500 0.5695
vn 0.2616 -0.9652 0.0018
vn -0.6286 0.5874 0.5096
vn 0.2042 -0.9789 -0.0118
vn 0.0677 0.9849 0.1596
vn -0.1928 0.6769 -0.7104
vn 0.1458 -0.8534 0.5004
vn -0.0798 0.9580 0.2755
vn -0.7561 0.5385 -0.3718
vn 0.3768 -0.8931 0.2459
vn -0.1944 0.9294 0.3137
vn 0.0975 -0.9793 -0.1773
vn -0.1080 0.5883 0.8014
vn -0.0552 0.5878 -0.8071
vn 0.8334 0.5499 0.0552
vn -0.0574 -0.9769 -0.2057
vn -0.2248 0.5863 0.7782
vn -0.5781 0.2499 -0.7768
vn -0.3464 0.9377 -0.0267
vn -0.4491 0.8933 -0.0165
vn 0.2406 -0.9694 0.0481
vn -0.8345 0.5336 0.1373
vn 0.8030 0.5680 -0.1805
vn 0.1747 -0.9792 0.1033
vn -0.8017 0.5966 -0.0369
vn 0.7718 0.6101 0.1794
vn -0.7595 0.5414 -0.3606
vn 0.4670 -0.8732 -0.1392
vn -0.0276 -0.9894 0.1429
vn -0.7865 0.5479 0.2851
vn -0.0725 0.9169 0.3925
vn 0.8266 0.1015 0.5536
vn -0.7786 0.5759 -0.2493
vn -0.9654 -0.2606 -0.0064
vn -0.3638 0.8975 -0.2493
vn 0.1750 -0.9827 0.0608
vn 0.9661 0.2533 -0.0497
vn 0.1748 -0.9836 0.0451
vn -0.3622 0.9077 -0.2120
vn 0.1179 -0.9825 0.1440
vn 0.7059 0.0045 0.7083
vn 0.0077 1.0000 -0.0000
vn 0.1835 0.9830 -0.0000
vn -0.8768 0.0660 0.4762
vn -0.4518 0.0937 0.8872
vn -0.1550 0.0521 -0.9865
vn -0.3409 0.9395 -0.0326
vn -0.0379 -0.9831 -0.1791
vn -0.6258 0.0504 0.7783
vn 0.1832 0.9814 -0.0578
vn -0.0520 0.0755 -0.9958
vn 0.0378 0.9976 -0.0587
vn 0.0379 0.9993 -0.0000
vn 0.0545 0.8762 0.4789
vn 0.4693 -0.7994 -0.3751
vn 0.2297 0.7524 -0.6173
vn 0.1979 0.7887 -0.5821
vn -0.6815 -0.0793 0.7275
vn 0.2336 -0.9703 0.0629
vn 0.2242 -0.9579 0.1793
vn 0.1963 -0.9177 0.3453
vn 0.2068 -0.9683 0.1405
vn 0.8287 -0.4147 0.3758
vn 0.2510 -0.9396 0.2326
vn -0.0840 0.9883 0.1275
vn 0.8889 -0.0066 0.4581
vn 0.8833 -0.4642 0.0657
vn 0.0820 -0.9376 -0.3380
vn 0.3814 -0.9198 -0.0923
vn 0.1372 0.9224 0.3610
vn -0.0960 -0.9849 0.1443
vn -0.1032 -0.9923 0.0690
vn -0.1463 -0.9869 0.0686
vn -0.1260 -0.9896 0.0688
vn -0.1082 -0.9836 0.1441
vn -0.1401 -0.9797 0.1435
vn -0.1754 -0.9741 0.1427
vn -0.1463 -0.9788 0.1434
vn -0.1632 -0.9842 0.0684
vn -0.3327 0.5165 0.7890
vn -0.1552 -0.9693 0.1906
vn -0.1105 -0.8479 0.5184
vn 0.1653 0.5162 -0.8404
vn -0.0488 -0.9825 -0.1795
vn -0.0741 0.9303 0.3591
vn 0.0461 0.8462 -0.5309
vn -0.1786 0.8236 0.5384
vn 0.0502 -0.9985 0.0205
vn 0.0955 0.8283 -0.5520
vn -0.0958 0.6504 0.7536
vn -0.0411 -0.9989 0.0242
vn 0.1259 0.8717 0.4737
vn 0.3744 0.6237 -0.6861
vn -0.2770 -0.9495 0.1478
vn -0.0841 0.9675 0.2384
vn 0.5576 0.4799 -0.6774
vn -0.3320 -0.8591 0.3895
vn -0.0580 -0.9608 -0.2710
vn 0.0033 0.8905 0.4549
vn 0.0911 0.6094 -0.7876
vn -0.0768 -0.9597 0.2702
vn -0.1315 0.9002 0.4151
vn 0.2527 0.6048 -0.7552
vn -0.1421 -0.9581 0.2488
vn -0.3495 0.9207 0.1735
vn 0.4231 0.6198 -0.6609
vn -0.2015 -0.9615 0.1868
vn -0.2923 -0.9065 -0.3046
vn 0.8881 0.4595 0.0098
vn -0.3713 -0.9285 -0.0021
vn -0.0578 0.8412 -0.5377
vn 0.1220 0.5298 0.8393
vn -0.1504 -0.9869 -0.0588
vn -0.2102 0.8339 -0.5104
vn 0.3027 0.4933 0.8155
vn -0.1378 -0.9887 -0.0594
vn 0.4963 0.4308 0.7537
vn -0.0140 -0.9978 -0.0651
vn -0.0536 0.8626 -0.5031
vn 0.4738 0.6618 0.5810
vn -0.3083 -0.9512 0.0131
vn -0.1364 0.8690 -0.4757
vn 0.5032 0.6500 0.5695
vn -0.2616 -0.9652 0.0018
vn 0.6286 0.5874 0.5096
vn -0.2042 -0.9789 -0.0118
vn -0.0677 0.9849 0.1596
vn 0.1928 0.6769 -0.7104
vn -0.1458 -0.8534 0.5004
vn 0.0798 0.9580 0.2755
vn 0.7561 0.5385 -0.3718
vn -0.3768 -0.8931 0.2459
vn 0.1944 0.9294 0.3137
vn -0.0975 -0.9793 -0.1773
vn 0.1080 0.5883 0.8014
vn 0.0552 0.5878 -0.8071
vn -0.8334 0.5499 0.0552
vn 0.0574 -0.9769 -0.2057
vn 0.2248 0.5863 0.7782
vn 0.5781 0.2499 -0.7768
vn 0.3464 0.9377 -0.0267
vn 0.4491 0.8933 -0.0165
vn -0.2406 -0.9694 0.0481
vn 0.8345 0.5336 0.1373
vn -0.8030 0.5680 -0.1805
vn -0.1747 -0.9792 0.1033
vn 0.8017 0.5966 -0.0369
vn -0.7718 0.6101 0.1794
vn 0.7595 0.5414 -0.3606
vn -0.4670 -0.8732 -0.1392
vn 0.0276 -0.9894 0.1429
vn 0.7865 0.5479 0.2851
vn 0.0725 0.9169 0.3925
vn -0.8266 0.1015 0.5536
vn 0.7786 0.5759 -0.2493
vn 0.9654 -0.2606 -0.0064
vn 0.3638 0.8975 -0.2493
vn -0.1750 -0.9827 0.0608
vn -0.9661 0.2533 -0.0497
vn -0.1748 -0.9836 0.0451
vn 0.3622 0.9077 -0.2120
vt 0.250000 0.500000
vt 0.320086 0.500000
vt 0.250000 0.538955
vt 0.375000 0.375000
vt 0.625000 0.375000
vt 0.625000 0.500000
vt 0.375000 0.500000
vt 0.375000 0.445086
vt 0.625000 0.591910
vt 0.375000 0.593621
vt 0.625000 0.750000
vt 0.375000 0.750000
vt 0.000000 0.000000
vt 0.250000 0.750000
vt 0.375000 0.727066
vt 0.625000 0.875000
vt 0.375000 0.875000
vt 0.375000 0.826291
vt 0.750000 0.750000
vt 0.750000 0.750000
vt 0.750000 0.500000
vt 0.345229 0.541217
vt 0.375000 0.548679
vt 0.298709 0.750000
vt 0.340449 0.750000
vt 0.375000 0.623349
vt 0.375000 0.640859
vt 0.375000 0.669885
vt 0.375000 0.706349
vt 0.375000 0.649443
vt 0.375000 0.524364
vt 0.375000 0.590022
vt 0.375000 0.651510
vt 0.250000 0.716241
vt 0.250000 0.642860
vt 0.250000 0.677630
vt 0.250000 0.578241
vt 0.250000 0.613744
vt 0.118424 0.229605
vt 0.351360 0.742757
s 0
usemtl Material
f 15/1/1 21/2/1 4/3/1
f 15/4/2 18/5/2 1/6/2 2/7/2 21/8/2
f 1/6/3 8/9/3 7/10/3 2/7/3
f 8/9/4 5/11/4 9/11/4 11/11/4
f 8/9/5 1/6/5 3/11/5 5/11/5
f 6/12/6 5/11/6 9/11/6 10/12/6
f 10/12/7 9/11/7 11/11/7 12/12/7
f 11/11/8 8/9/8 7/10/8 12/12/8
f 6/13/9 10/13/9 12/13/9 7/13/9 30/13/9
f 35/13/10 17/14/10 34/15/10
f 6/12/11 29/11/11 5/11/11
f 13/11/12 29/11/12 5/11/12 3/11/12
f 14/12/13 13/11/13 19/16/13 20/17/13 23/18/13
f 3/11/14 16/19/14 19/20/14 13/11/14
f 1/6/15 18/21/15 16/19/15 3/11/15
f 31/22/16 32/23/16 55/23/16 53/22/16
f 23/24/17 35/25/17 37/12/17 14/12/17
f 25/26/18 24/27/18 50/27/18 52/26/18
f 28/28/19 26/29/19 47/29/19 49/28/19
f 29/11/20 6/12/20 14/12/20 13/11/20
f 6/12/21 28/28/21 30/30/21
f 30/30/22 25/26/22 7/10/22
f 7/10/23 25/26/23 32/23/23 33/31/23 2/7/23
f 25/26/24 30/30/24 28/28/24
f 32/23/25 31/22/25 33/31/25
f 33/31/26 21/2/26 2/7/26
f 21/2/27 33/31/27 58/31/27 56/2/27
f 32/23/28 25/26/28 22/32/28
f 28/28/29 27/33/29 24/27/29 25/26/29
f 37/12/30 36/12/30 6/12/30 14/12/30
f 36/12/31 34/15/31 26/29/31 28/28/31 6/12/31
f 46/12/32 45/12/32 93/12/32 94/12/32
f 38/34/33 34/15/33 17/14/33
f 34/15/34 38/34/34 26/29/34
f 39/35/35 24/27/35 27/33/35
f 27/33/36 26/29/36 40/36/36
f 26/29/37 38/34/37 40/36/37
f 40/36/38 39/35/38 27/33/38
f 41/37/39 22/32/39 42/38/39
f 42/38/40 24/27/40 39/35/40
f 24/27/41 42/38/41 22/32/41
f 34/15/42 36/12/42 46/12/42 43/15/42
f 4/3/43 31/22/43 22/32/43 41/37/43
f 31/22/44 4/3/44 21/2/44
f 37/12/45 35/25/45 44/25/45 45/12/45
f 35/13/46 34/15/46 43/15/46 44/13/46
f 36/12/47 37/12/47 45/12/47 46/12/47
f 49/28/48 47/29/48 78/29/48 80/28/48
f 27/33/49 28/28/49 49/28/49 48/33/49
f 26/29/50 27/33/50 48/33/50 47/29/50
f 52/26/51 50/27/51 71/27/51 73/26/51
f 22/32/52 25/26/52 52/26/52 51/32/52
f 24/27/53 22/32/53 51/32/53 50/27/53
f 53/22/54 55/23/54 61/23/54 59/22/54
f 32/23/55 22/32/55 54/32/55 55/23/55
f 22/32/56 31/22/56 53/22/56 54/32/56
f 56/2/57 58/31/57 87/31/57 85/2/57
f 33/31/58 31/22/58 57/22/58 58/31/58
f 31/22/59 21/2/59 56/2/59 57/22/59
f 20/17/60 17/14/60 35/25/60 23/18/60
f 59/22/61 61/23/61 64/23/61 62/22/61
f 55/23/62 54/32/62 60/32/62 61/23/62
f 54/32/63 53/22/63 59/22/63 60/32/63
f 62/22/64 64/23/64 67/23/64 65/22/64
f 61/23/65 60/32/65 63/32/65 64/23/65
f 60/32/66 59/22/66 62/22/66 63/32/66
f 65/22/67 67/23/67 68/22/67
f 64/23/68 63/32/68 66/32/68 67/23/68
f 63/32/69 62/22/69 65/22/69 66/32/69
f 69/22/70 70/2/70 109/2/70 108/22/70
f 67/23/71 66/32/71 68/23/71
f 66/32/72 65/22/72 68/32/72
f 73/26/73 71/27/73 74/27/73 76/26/73
f 51/32/74 52/26/74 73/26/74 72/32/74
f 50/27/75 51/32/75 72/32/75 71/27/75
f 76/26/76 74/27/76 77/26/76
f 72/32/77 73/26/77 76/26/77 75/32/77
f 71/27/78 72/32/78 75/32/78 74/27/78
f 75/32/79 76/26/79 77/32/79
f 74/27/80 75/32/80 77/27/80
f 80/28/81 78/29/81 81/29/81 83/28/81
f 48/33/82 49/28/82 80/28/82 79/33/82
f 47/29/83 48/33/83 79/33/83 78/29/83
f 83/28/84 81/29/84 84/28/84
f 79/33/85 80/28/85 83/28/85 82/33/85
f 78/29/86 79/33/86 82/33/86 81/29/86
f 82/33/87 83/28/87 84/33/87
f 81/29/88 82/33/88 84/29/88
f 85/2/89 87/31/89 90/31/89 88/2/89
f 58/31/90 57/22/90 86/22/90 87/31/90
f 57/22/91 56/2/91 85/2/91 86/22/91
f 88/2/92 90/31/92 107/31/92 70/2/92
f 87/31/93 86/22/93 89/22/93 90/31/93
f 86/22/94 85/2/94 88/2/94 89/22/94
f 94/12/95 93/12/95 97/12/95 98/12/95
f 44/13/96 43/15/96 91/15/96 92/13/96
f 43/15/97 46/12/97 94/12/97 91/15/97
f 45/12/98 44/25/98 92/25/98 93/12/98
f 97/12/99 96/25/99 100/25/99 101/12/99
f 92/13/100 91/15/100 95/15/100 96/13/100
f 91/15/101 94/12/101 98/12/101 95/15/101
f 93/12/102 92/25/102 96/25/102 97/12/102
f 102/12/103 101/12/103 105/12/103 112/12/103 106/12/103
f 98/12/104 97/12/104 101/12/104 102/12/104
f 96/13/105 95/15/105 99/15/105 100/13/105
f 95/15/106 98/12/106 102/12/106 99/15/106
f 105/12/107 104/25/107 113/12/107
f 100/13/108 99/15/108 103/15/108 111/39/108 104/13/108
f 99/15/109 102/12/109 106/12/109 103/15/109
f 101/12/110 100/25/110 104/25/110 105/12/110
f 90/31/111 89/22/111 69/22/111 107/31/111
f 89/22/112 88/2/112 70/2/112 69/22/112
f 109/2/113 110/31/113 108/22/113
f 107/31/114 69/22/114 108/22/114 110/31/114
f 70/2/115 107/31/115 110/31/115 109/2/115
f 98/13/116 95/13/116 96/13/116 97/13/116
f 103/15/117 106/12/117 114/15/117
f 111/40/118 112/12/118 113/40/118
f 112/12/119 105/12/119 113/12/119
f 104/13/120 111/39/120 113/13/120
f 112/12/121 111/40/121 114/12/121
f 111/39/122 103/15/122 114/39/122
f 106/12/123 112/12/123 114/12/123
f 15/1/124 4/3/124 128/2/124
f 15/4/2 128/8/2 116/7/2 115/6/2 18/5/2
f 115/6/125 116/7/125 120/10/125 121/9/125
f 121/9/126 124/11/126 122/11/126 118/11/126
f 121/9/127 118/11/127 117/11/127 115/6/127
f 119/12/128 123/12/128 122/11/128 118/11/128
f 123/12/129 125/12/129 124/11/129 122/11/129
f 124/11/130 125/12/130 120/10/130 121/9/130
f 119/13/131 137/13/131 120/13/131 125/13/131 123/13/131
f 142/13/132 141/15/132 17/14/132
f 119/12/133 118/11/133 136/11/133
f 126/11/134 117/11/134 118/11/134 136/11/134
f 127/12/135 130/18/135 20/17/135 19/16/135 126/11/135
f 117/11/136 126/11/136 19/20/136 16/19/136
f 115/6/137 117/11/137 16/19/137 18/21/137
f 138/22/138 155/22/138 157/23/138 139/23/138
f 130/24/139 127/12/139 144/12/139 142/25/139
f 132/26/140 154/26/140 152/27/140 131/27/140
f 135/28/141 151/28/141 149/29/141 133/29/141
f 136/11/142 126/11/142 127/12/142 119/12/142
f 119/12/143 137/30/143 135/28/143
f 137/30/144 120/10/144 132/26/144
f 120/10/145 116/7/145 140/31/145 139/23/145 132/26/145
f 132/26/146 135/28/146 137/30/146
f 139/23/147 140/31/147 138/22/147
f 140/31/148 116/7/148 128/2/148
f 128/2/149 158/2/149 160/31/149 140/31/149
f 139/23/150 129/32/150 132/26/150
f 135/28/151 132/26/151 131/27/151 134/33/151
f 144/12/152 127/12/152 119/12/152 143/12/152
f 143/12/153 119/12/153 135/28/153 133/29/153 141/15/153
f 148/12/154 196/12/154 195/12/154 147/12/154
f 38/34/155 17/14/155 141/15/155
f 141/15/156 133/29/156 38/34/156
f 39/35/157 134/33/157 131/27/157
f 134/33/158 40/36/158 133/29/158
f 133/29/159 40/36/159 38/34/159
f 40/36/160 134/33/160 39/35/160
f 41/37/161 42/38/161 129/32/161
f 42/38/162 39/35/162 131/27/162
f 131/27/163 129/32/163 42/38/163
f 141/15/164 145/15/164 148/12/164 143/12/164
f 4/3/165 41/37/165 129/32/165 138/22/165
f 138/22/166 128/2/166 4/3/166
f 144/12/167 147/12/167 146/25/167 142/25/167
f 142/13/168 146/13/168 145/15/168 141/15/168
f 143/12/169 148/12/169 147/12/169 144/12/169
f 151/28/170 182/28/170 180/29/170 149/29/170
f 134/33/171 150/33/171 151/28/171 135/28/171
f 133/29/172 149/29/172 150/33/172 134/33/172
f 154/26/173 175/26/173 173/27/173 152/27/173
f 129/32/174 153/32/174 154/26/174 132/26/174
f 131/27/175 152/27/175 153/32/175 129/32/175
f 155/22/176 161/22/176 163/23/176 157/23/176
f 139/23/177 157/23/177 156/32/177 129/32/177
f 129/32/178 156/32/178 155/22/178 138/22/178
f 158/2/179 187/2/179 189/31/179 160/31/179
f 140/31/180 160/31/180 159/22/180 138/22/180
f 138/22/181 159/22/181 158/2/181 128/2/181
f 20/17/182 130/18/182 142/25/182 17/14/182
f 161/22/183 164/22/183 166/23/183 163/23/183
f 157/23/184 163/23/184 162/32/184 156/32/184
f 156/32/185 162/32/185 161/22/185 155/22/185
f 164/22/186 167/22/186 169/23/186 166/23/186
f 163/23/187 166/23/187 165/32/187 162/32/187
f 162/32/188 165/32/188 164/22/188 161/22/188
f 167/22/189 170/22/189 169/23/189
f 166/23/190 169/23/190 168/32/190 165/32/190
f 165/32/191 168/32/191 167/22/191 164/22/191
f 171/22/192 210/22/192 211/2/192 172/2/192
f 169/23/193 170/23/193 168/32/193
f 168/32/194 170/32/194 167/22/194
f 175/26/195 178/26/195 176/27/195 173/27/195
f 153/32/196 174/32/196 175/26/196 154/26/196
f 152/27/197 173/27/197 174/32/197 153/32/197
f 178/26/198 179/26/198 176/27/198
f 174/32/199 177/32/199 178/26/199 175/26/199
f 173/27/200 176/27/200 177/32/200 174/32/200
f 177/32/201 179/32/201 178/26/201
f 176/27/202 179/27/202 177/32/202
f 182/28/203 185/28/203 183/29/203 180/29/203
f 150/33/204 181/33/204 182/28/204 151/28/204
f 149/29/205 180/29/205 181/33/205 150/33/205
f 185/28/206 186/28/206 183/29/206
f 181/33/207 184/33/207 185/28/207 182/28/207
f 180/29/208 183/29/208 184/33/208 181/33/208
f 184/33/209 186/33/209 185/28/209
f 183/29/210 186/29/210 184/33/210
f 187/2/211 190/2/211 192/31/211 189/31/211
f 160/31/212 189/31/212 188/22/212 159/22/212
f 159/22/213 188/22/213 187/2/213 158/2/213
f 190/2/214 172/2/214 209/31/214 192/31/214
f 189/31/215 192/31/215 191/22/215 188/22/215
f 188/22/216 191/22/216 190/2/216 187/2/216
f 196/12/217 200/12/217 199/12/217 195/12/217
f 146/13/218 194/13/218 193/15/218 145/15/218
f 145/15/219 193/15/219 196/12/219 148/12/219
f 147/12/220 195/12/220 194/25/220 146/25/220
f 199/12/221 203/12/221 202/25/221 198/25/221
f 194/13/222 198/13/222 197/15/222 193/15/222
f 193/15/223 197/15/223 200/12/223 196/12/223
f 195/12/224 199/12/224 198/25/224 194/25/224
f 204/12/225 208/12/225 214/12/225 207/12/225 203/12/225
f 200/12/226 204/12/226 203/12/226 199/12/226
f 198/13/227 202/13/227 201/15/227 197/15/227
f 197/15/228 201/15/228 204/12/228 200/12/228
f 207/12/229 215/12/229 206/25/229
f 202/13/230 206/13/230 213/39/230 205/15/230 201/15/230
f 201/15/231 205/15/231 208/12/231 204/12/231
f 203/12/232 207/12/232 206/25/232 202/25/232
f 192/31/233 209/31/233 171/22/233 191/22/233
f 191/22/234 171/22/234 172/2/234 190/2/234
f 211/2/235 210/22/235 212/31/235
f 209/31/236 212/31/236 210/22/236 171/22/236
f 172/2/237 211/2/237 212/31/237 209/31/237
f 200/13/238 199/13/238 198/13/238 197/13/238
f 205/15/239 216/15/239 208/12/239
f 213/40/240 215/40/240 214/12/240
f 214/12/241 215/12/241 207/12/241
f 206/13/242 215/13/242 213/39/242
f 214/12/243 216/12/243 213/40/243
f 213/39/244 216/39/244 205/15/244
f 208/12/245 216/12/245 214/12/245
l 7 10
l 8 9
l 31 41
l 28 36
l 120 123
l 121 122
l 138 41
l 135 143
