# Blender 4.2.3 LTS
# www.blender.org
mtllib cube.mtl
o Cube
v 0.756418 0.756418 -1.000000
v 0.756418 1.000000 -0.756418
v 1.000000 0.756418 -0.756418
v 0.756418 -1.000000 -0.756418
v 0.756418 -0.756418 -1.000000
v 1.000000 -0.756418 -0.756418
v 1.000000 0.756418 0.756418
v 0.756418 1.000000 0.756418
v 0.756418 0.756418 1.000000
v 1.000000 -0.756418 0.756418
v 0.756418 -0.756418 1.000000
v 0.756418 -1.000000 0.756418
v -0.756418 0.756418 -1.000000
v -1.000000 0.756418 -0.756418
v -0.756418 1.000000 -0.756418
v -1.000000 -0.756418 -0.756418
v -0.756418 -0.756418 -1.000000
v -0.756418 -1.000000 -0.756418
v -1.000000 0.756418 0.756418
v -0.756418 0.756418 1.000000
v -0.756418 1.000000 0.756418
v -0.756418 -1.000000 0.756418
v -0.756418 -0.756418 1.000000
v -1.000000 -0.756418 0.756418
v 1.000000 0.906418 -0.906418
v 1.000000 -0.906418 -0.906418
v 1.000000 -0.906418 0.906418
v 1.000000 0.906418 0.906418
v 1.000000 0.906418 -0.906418
v 1.000000 -0.906418 -0.906418
v 1.000000 -0.906418 0.906418
v 1.000000 0.906418 0.906418
v -0.906418 -0.906418 1.000000
v -0.906418 0.906418 1.000000
v 0.906418 0.906418 1.000000
v 0.906418 -0.906418 1.000000
v -1.000000 -0.906418 0.906418
v -1.000000 -0.906418 -0.906418
v -1.000000 0.906418 0.906418
v -1.000000 0.906418 -0.906418
v -0.906418 -0.906418 -1.000000
v 0.906418 -0.906418 -1.000000
v 0.906418 0.906418 -1.000000
v -0.906418 0.906418 -1.000000
v 0.906418 1.000000 0.906418
v -0.906418 1.000000 0.906418
v 0.906418 1.000000 -0.906418
v -0.906418 1.000000 -0.906418
v -0.906418 -1.000000 -0.906418
v -0.906418 -1.000000 0.906418
v 0.906418 -1.000000 -0.906418
v 0.906418 -1.000000 0.906418
v 1.000000 0.756418 -0.756418
v 1.000000 -0.756418 -0.756418
v 1.000000 -0.756418 0.756418
v 1.000000 0.756418 0.756418
v -0.756418 -0.756418 1.000000
v -0.756418 0.756418 1.000000
v 0.756418 0.756418 1.000000
v 0.756418 -0.756418 1.000000
v -1.000000 -0.756418 0.756418
v -1.000000 -0.756418 -0.756418
v -1.000000 0.756418 0.756418
v -1.000000 0.756418 -0.756418
v -0.756418 -0.756418 -1.000000
v 0.756418 -0.756418 -1.000000
v 0.756418 0.756418 -1.000000
v -0.756418 0.756418 -1.000000
v 0.756418 1.000000 0.756418
v -0.756418 1.000000 0.756418
v 0.756418 1.000000 -0.756418
v -0.756418 1.000000 -0.756418
v -0.756418 -1.000000 -0.756418
v -0.756418 -1.000000 0.756418
v 0.756418 -1.000000 -0.756418
v 0.756418 -1.000000 0.756418
v 0.914637 0.641848 -0.641848
v 0.914637 -0.641848 -0.641848
v 0.914637 -0.641848 0.641848
v 0.914637 0.641848 0.641848
v -0.641848 -0.641848 0.914637
v -0.641848 0.641848 0.914637
v 0.641848 0.641848 0.914637
v 0.641848 -0.641848 0.914637
v -0.914637 -0.641848 0.641848
v -0.914637 -0.641848 -0.641848
v -0.914637 0.641848 0.641848
v -0.914637 0.641848 -0.641848
v -0.641848 -0.641848 -0.914637
v 0.641848 -0.641848 -0.914637
v 0.641848 0.641848 -0.914637
v -0.641848 0.641848 -0.914637
v 0.641848 0.914637 0.641848
v -0.641848 0.914637 0.641848
v 0.641848 0.914637 -0.641848
v -0.641848 0.914637 -0.641848
v -0.641848 -0.914637 -0.641848
v -0.641848 -0.914637 0.641848
v 0.641848 -0.914637 -0.641848
v 0.641848 -0.914637 0.641848
v -0.691848 -0.691848 0.914637
v -0.691848 0.691848 0.914637
v 0.691848 0.691848 0.914637
v 0.691848 -0.691848 0.914637
v -0.914637 -0.691848 0.691848
v -0.914637 -0.691848 -0.691848
v -0.914637 0.691848 0.691848
v -0.914637 0.691848 -0.691848
v -0.691848 -0.691848 -0.914637
v 0.691848 -0.691848 -0.914637
v 0.691848 0.691848 -0.914637
v -0.691848 0.691848 -0.914637
v -0.691848 -0.691848 -0.914637
v 0.691848 -0.691848 -0.914637
v 0.691848 0.691848 -0.914637
v -0.691848 0.691848 -0.914637
v 0.914637 0.691848 -0.691848
v 0.914637 -0.691848 -0.691848
v 0.914637 -0.691848 0.691848
v 0.914637 0.691848 0.691848
v 0.691848 0.914637 0.691848
v -0.691848 0.914637 0.691848
v 0.691848 0.914637 -0.691848
v -0.691848 0.914637 -0.691848
v -0.691848 -0.914637 -0.691848
v -0.691848 -0.914637 0.691848
v 0.691848 -0.914637 -0.691848
v 0.691848 -0.914637 0.691848
v -0.641848 -0.914637 -0.641848
v -0.641848 -0.914637 0.641848
v 0.641848 -0.914637 -0.641848
v 0.641848 -0.914637 0.641848
v -0.641848 -0.641848 0.914637
v -0.641848 0.641848 0.914637
v 0.641848 0.641848 0.914637
v 0.641848 -0.641848 0.914637
v -0.914637 -0.641848 0.641848
v -0.914637 -0.641848 -0.641848
v -0.914637 0.641848 0.641848
v -0.914637 0.641848 -0.641848
v -0.641848 -0.641848 -0.914637
v 0.641848 -0.641848 -0.914637
v 0.641848 0.641848 -0.914637
v -0.641848 0.641848 -0.914637
v 0.914637 0.641848 -0.641848
v 0.914637 -0.641848 -0.641848
v 0.914637 -0.641848 0.641848
v 0.914637 0.641848 0.641848
v 0.641848 0.914637 0.641848
v -0.641848 0.914637 0.641848
v 0.641848 0.914637 -0.641848
v -0.641848 0.914637 -0.641848
v -0.641848 -0.914637 -0.641848
v -0.641848 -0.914637 0.641848
v 0.641848 -0.914637 -0.641848
v 0.641848 -0.914637 0.641848
v -0.641848 -0.641848 0.914637
v -0.641848 0.641848 0.914637
v 0.641848 0.641848 0.914637
v 0.641848 -0.641848 0.914637
v -0.914637 -0.641848 0.641848
v -0.914637 -0.641848 -0.641848
v -0.914637 0.641848 0.641848
v -0.914637 0.641848 -0.641848
v -0.641848 -0.641848 -0.914637
v 0.641848 -0.641848 -0.914637
v 0.641848 0.641848 -0.914637
v -0.641848 0.641848 -0.914637
v 0.914637 0.641848 -0.641848
v 0.914637 -0.641848 -0.641848
v 0.914637 -0.641848 0.641848
v 0.914637 0.641848 0.641848
v 0.641848 0.914637 0.641848
v -0.641848 0.914637 0.641848
v 0.641848 0.914637 -0.641848
v -0.641848 0.914637 -0.641848
v -0.641848 -0.914637 -0.641848
v -0.641848 -0.914637 0.641848
v 0.641848 -0.914637 -0.641848
v 0.641848 -0.914637 0.641848
v -0.641848 -0.641848 0.914637
v -0.641848 0.641848 0.914637
v 0.641848 0.641848 0.914637
v 0.641848 -0.641848 0.914637
v -0.914637 -0.641848 0.641848
v -0.914637 -0.641848 -0.641848
v -0.914637 0.641848 0.641848
v -0.914637 0.641848 -0.641848
v -0.641848 -0.641848 -0.914637
v 0.641848 -0.641848 -0.914637
v 0.641848 0.641848 -0.914637
v -0.641848 0.641848 -0.914637
v 0.914637 0.641848 -0.641848
v 0.914637 -0.641848 -0.641848
v 0.914637 -0.641848 0.641848
v 0.914637 0.641848 0.641848
v 0.641848 0.914637 0.641848
v -0.641848 0.914637 0.641848
v 0.641848 0.914637 -0.641848
v -0.641848 0.914637 -0.641848
v -0.641848 -0.914637 -0.641848
v -0.641848 -0.914637 0.641848
v 0.641848 -0.914637 -0.641848
v 0.641848 -0.914637 0.641848
v -0.641848 -0.641848 0.914637
v -0.641848 0.641848 0.914637
v 0.641848 0.641848 0.914637
v 0.641848 -0.641848 0.914637
v -0.914637 -0.641848 0.641848
v -0.914637 -0.641848 -0.641848
v -0.914637 0.641848 0.641848
v -0.914637 0.641848 -0.641848
v -0.641848 -0.641848 -0.914637
v 0.641848 -0.641848 -0.914637
v 0.641848 0.641848 -0.914637
v -0.641848 0.641848 -0.914637
v 0.914637 0.641848 -0.641848
v 0.914637 -0.641848 -0.641848
v 0.914637 -0.641848 0.641848
v 0.914637 0.641848 0.641848
v 0.641848 0.914637 0.641848
v -0.641848 0.914637 0.641848
v 0.641848 0.914637 -0.641848
v -0.641848 0.914637 -0.641848
v -0.641848 -0.914637 -0.641848
v -0.641848 -0.914637 0.641848
v 0.641848 -0.914637 -0.641848
v 0.641848 -0.914637 0.641848
v -0.641848 -0.641848 0.914637
v -0.641848 0.641848 0.914637
v 0.641848 0.641848 0.914637
v 0.641848 -0.641848 0.914637
v -0.914637 -0.641848 0.641848
v -0.914637 -0.641848 -0.641848
v -0.914637 0.641848 0.641848
v -0.914637 0.641848 -0.641848
v -0.641848 -0.641848 -0.914637
v 0.641848 -0.641848 -0.914637
v 0.641848 0.641848 -0.914637
v -0.641848 0.641848 -0.914637
v 0.914637 0.641848 -0.641848
v 0.914637 -0.641848 -0.641848
v 0.914637 -0.641848 0.641848
v 0.914637 0.641848 0.641848
v 0.641848 0.914637 0.641848
v -0.641848 0.914637 0.641848
v 0.641848 0.914637 -0.641848
v -0.641848 0.914637 -0.641848
v -0.641848 -0.914637 -0.641848
v -0.641848 -0.914637 0.641848
v 0.641848 -0.914637 -0.641848
v 0.641848 -0.914637 0.641848
v -0.961504 -0.641848 0.641848
v -0.961504 0.641848 0.641848
v -0.961504 0.641848 -0.641848
v -0.961504 -0.641848 -0.641848
v 0.641848 -0.641848 0.961504
v 0.641848 0.641848 0.961504
v -0.641848 0.641848 0.961504
v -0.641848 -0.641848 0.961504
v 0.641848 0.961504 -0.641848
v -0.641848 0.961504 -0.641848
v -0.641848 0.961504 0.641848
v 0.641848 0.961504 0.641848
v 0.961504 -0.641848 -0.641848
v 0.961504 0.641848 -0.641848
v 0.961504 0.641848 0.641848
v 0.961504 -0.641848 0.641848
v -0.641848 -0.641848 -0.961504
v -0.641848 0.641848 -0.961504
v 0.641848 0.641848 -0.961504
v 0.641848 -0.641848 -0.961504
v -0.641848 -0.961504 -0.641848
v 0.641848 -0.961504 -0.641848
v 0.641848 -0.961504 0.641848
v -0.641848 -0.961504 0.641848
vn -0.0000 1.0000 -0.0000
vn 0.5774 0.5774 -0.5774
vn 0.5774 -0.5774 -0.5774
vn 0.5774 0.5774 0.5774
vn 0.5774 -0.5774 0.5774
vn -0.5774 0.5774 -0.5774
vn -0.5774 -0.5774 -0.5774
vn -0.5774 0.5774 0.5774
vn -0.5774 -0.5774 0.5774
vn -0.7071 -0.7071 -0.0000
vn -0.0000 -0.7071 -0.7071
vn 0.7071 -0.0000 -0.7071
vn -0.7071 -0.0000 0.7071
vn 0.7071 -0.0000 0.7071
vn -0.7071 -0.0000 -0.7071
vn -0.0000 0.7071 0.7071
vn 0.7071 0.7071 -0.0000
vn -0.0000 -0.7071 0.7071
vn -0.7071 0.7071 -0.0000
vn -0.0000 0.7071 -0.7071
vn 0.7071 -0.7071 -0.0000
vn 1.0000 -0.0000 -0.0000
vn -0.0000 -0.0000 1.0000
vn -1.0000 -0.0000 -0.0000
vn -0.0000 -0.0000 -1.0000
vn -0.0000 -1.0000 -0.0000
vn 0.7975 -0.6033 -0.0000
vn -0.7975 -0.0000 0.6033
vn -0.0000 0.7975 -0.6033
vn -0.0000 0.6033 0.7975
vn 0.7975 -0.0000 0.6033
vn -0.7917 -0.0000 0.6109
vn -0.7975 -0.0000 -0.6033
vn -0.0000 -0.7975 0.6033
vn -0.0000 -0.6033 0.7975
vn 0.7975 -0.0000 -0.6033
vn -0.0000 0.7975 0.6033
vn -0.0000 -0.6033 -0.7975
vn 0.6033 -0.0000 0.7975
vn -0.0000 -0.7975 -0.6033
vn -0.6033 0.7975 -0.0000
vn -0.7975 -0.6033 -0.0000
vn 0.6033 -0.0000 -0.7975
vn -0.0000 0.6033 -0.7975
vn -0.6033 -0.0000 -0.7975
vn 0.6033 -0.7975 -0.0000
vn -0.7975 0.6033 -0.0000
vn 0.6033 0.7975 -0.0000
vn 0.7975 0.6033 -0.0000
vn -0.7917 -0.6109 -0.0000
vt 0.405448 0.469552
vt 0.405448 0.280448
vt 0.405448 0.780448
vt 0.594552 0.780448
vt 0.405448 0.219552
vt 0.405448 0.030448
vt 0.594552 0.719552
vt 0.405448 0.719552
vt 0.594552 0.969552
vt 0.405448 0.969552
vt 0.613302 0.488302
vt 0.625000 0.488302
vt 0.613302 0.500000
vt 0.363302 0.511698
vt 0.363302 0.500000
vt 0.375000 0.511698
vt 0.613302 0.750000
vt 0.625000 0.761698
vt 0.613302 0.761698
vt 0.375000 0.738302
vt 0.363302 0.750000
vt 0.363302 0.738302
vt 0.613302 0.250000
vt 0.613302 0.238302
vt 0.625000 0.238302
vt 0.125000 0.511698
vt 0.136698 0.500000
vt 0.136698 0.511698
vt 0.613302 0.011698
vt 0.613302 0.000000
vt 0.625000 0.011698
vt 0.136698 0.738302
vt 0.136698 0.750000
vt 0.125000 0.738302
vt 0.613302 0.511698
vt 0.386698 0.511698
vt 0.386698 0.488302
vt 0.386698 0.000000
vt 0.386698 0.011698
vt 0.386698 0.761698
vt 0.386698 0.738302
vt 0.613302 0.738302
vt 0.613302 0.261698
vt 0.386698 0.261698
vt 0.386698 0.238302
vt 0.625000 0.988302
vt 0.613302 0.988302
vt 0.636698 0.511698
vt 0.636698 0.738302
vt 0.625000 0.261698
vt 0.405448 0.530448
vt 0.594552 0.530448
vt 0.000000 0.000000
vt 0.386698 0.988302
vt 0.594552 0.030448
vt 0.594552 0.219552
vt 0.594552 0.469552
vt 0.594552 0.280448
vt 0.655448 0.719552
vt 0.844552 0.719552
vt 0.863302 0.738302
vt 0.655448 0.530448
vt 0.844552 0.530448
vt 0.863302 0.511698
vt 0.155448 0.530448
vt 0.155448 0.719552
vt 0.344552 0.530448
vt 0.344552 0.719552
vt 0.412281 0.212719
vt 0.587719 0.212719
vt 0.337719 0.712719
vt 0.162281 0.712719
vt 0.587719 0.537281
vt 0.587719 0.712719
vt 0.162281 0.537281
vt 0.662281 0.712719
vt 0.662281 0.537281
vt 0.412281 0.287281
vt 0.587719 0.287281
vt 0.587719 0.037281
vt 0.412281 0.962719
vt 0.587719 0.962719
vt 0.587719 0.787281
vt 0.412281 0.787281
vt 0.412281 0.037281
vt 0.412281 0.462719
vt 0.587719 0.462719
vt 0.412281 0.537281
vt 0.412281 0.712719
vt 0.837719 0.712719
vt 0.837719 0.537281
vt 0.337719 0.537281
s 0
usemtl Material
f 5/1/1 17/2/1 65/2/1 66/1/1
f 11/3/1 9/4/1 59/4/1 60/3/1
f 16/5/1 24/6/1 61/6/1 62/5/1
f 7/7/1 10/8/1 55/8/1 56/7/1
f 20/9/1 23/10/1 57/10/1 58/9/1
f 43/11/2 47/12/2 25/13/2
f 51/14/3 42/15/3 26/16/3
f 28/17/4 45/18/4 35/19/4
f 27/20/5 36/21/5 52/22/5
f 44/23/6 40/24/6 48/25/6
f 38/26/7 41/27/7 49/28/7
f 39/29/8 34/30/8 46/31/8
f 50/32/9 33/33/9 37/34/9
f 49/28/10 50/32/10 37/34/10 38/26/10
f 51/14/11 49/28/11 41/27/11 42/15/11
f 25/35/12 26/36/12 42/37/12 43/11/12
f 33/38/13 34/30/13 39/29/13 37/39/13
f 35/19/14 36/40/14 27/41/14 28/42/14
f 44/43/15 41/44/15 38/45/15 40/24/15
f 45/18/16 46/46/16 34/47/16 35/19/16
f 47/48/17 45/49/17 28/42/17 25/35/17
f 50/32/18 52/22/18 36/21/18 33/33/18
f 46/31/19 48/25/19 40/24/19 39/29/19
f 48/50/20 47/12/20 43/11/20 44/43/20
f 52/22/21 51/14/21 26/36/21 27/41/21
f 6/51/1 3/52/1 53/52/1 54/51/1
f 29/53/1 30/53/1 26/53/1 25/53/1
f 31/53/1 32/53/1 28/53/1 27/53/1
f 32/42/1 29/35/1 25/35/1 28/42/1
f 30/36/1 31/41/1 27/41/1 26/36/1
f 3/52/22 6/51/22 30/36/22 29/35/22
f 10/8/22 7/7/22 32/42/22 31/41/22
f 7/7/22 3/52/22 29/35/22 32/42/22
f 6/51/22 10/8/22 31/41/22 30/36/22
f 23/10/23 20/9/23 34/47/23 33/54/23
f 9/4/23 11/3/23 36/40/23 35/19/23
f 20/9/23 9/4/23 35/19/23 34/47/23
f 11/3/23 23/10/23 33/54/23 36/40/23
f 24/6/24 16/5/24 38/45/24 37/39/24
f 19/55/24 24/6/24 37/39/24 39/29/24
f 16/5/24 14/56/24 40/24/24 38/45/24
f 14/56/24 19/55/24 39/29/24 40/24/24
f 17/2/25 5/1/25 42/37/25 41/44/25
f 5/1/25 1/57/25 43/11/25 42/37/25
f 13/58/25 17/2/25 41/44/25 44/43/25
f 1/57/25 13/58/25 44/43/25 43/11/25
f 8/59/1 21/60/1 46/61/1 45/49/1
f 2/62/1 8/59/1 45/49/1 47/48/1
f 21/60/1 15/63/1 48/64/1 46/61/1
f 15/63/1 2/62/1 47/48/1 48/64/1
f 18/65/26 22/66/26 50/32/26 49/28/26
f 4/67/26 18/65/26 49/28/26 51/14/26
f 22/66/26 12/68/26 52/22/26 50/32/26
f 12/68/26 4/67/26 51/14/26 52/22/26
f 3/52/1 7/7/1 56/7/1 53/52/1
f 24/6/1 19/55/1 63/55/1 61/6/1
f 21/60/1 8/59/1 69/59/1 70/60/1
f 9/4/1 20/9/1 58/9/1 59/4/1
f 1/57/1 5/1/1 66/1/1 67/57/1
f 22/66/1 18/65/1 73/65/1 74/66/1
f 10/8/1 6/51/1 54/51/1 55/8/1
f 14/56/1 16/5/1 62/5/1 64/56/1
f 8/59/1 2/62/1 71/62/1 69/59/1
f 23/10/1 11/3/1 60/3/1 57/10/1
f 17/2/1 13/58/1 68/58/1 65/2/1
f 18/65/1 4/67/1 75/67/1 73/65/1
f 19/55/1 14/56/1 64/56/1 63/55/1
f 15/63/1 21/60/1 70/60/1 72/63/1
f 13/58/1 1/57/1 67/57/1 68/58/1
f 12/68/1 22/66/1 74/66/1 76/68/1
f 2/62/1 15/63/1 72/63/1 71/62/1
f 4/67/1 12/68/1 76/68/1 75/67/1
f 100/71/1 98/72/1 130/72/1 132/71/1
f 77/73/1 80/74/1 148/74/1 145/73/1
f 130/72/1 129/75/1 153/75/1 154/72/1
f 93/76/1 95/77/1 151/77/1 149/76/1
f 89/78/1 92/79/1 144/79/1 141/78/1
f 87/80/1 88/70/1 140/70/1 139/80/1
f 113/2/1 114/1/1 110/1/1 109/2/1
f 114/53/1 115/53/1 111/53/1 110/53/1
f 116/53/1 113/53/1 109/53/1 112/53/1
f 115/57/1 116/58/1 112/58/1 111/57/1
f 80/74/1 79/89/1 147/89/1 148/74/1
f 98/72/1 97/75/1 129/75/1 130/72/1
f 99/92/1 100/71/1 132/71/1 131/92/1
f 97/75/1 99/92/1 131/92/1 129/75/1
f 134/82/1 133/81/1 157/81/1 158/82/1
f 156/71/1 154/72/1 178/72/1 180/71/1
f 139/80/1 140/70/1 164/70/1 163/80/1
f 145/73/1 148/74/1 172/74/1 169/73/1
f 153/75/1 155/92/1 179/92/1 177/75/1
f 140/70/1 138/69/1 162/69/1 164/70/1
f 92/79/1 91/87/1 143/87/1 144/79/1
f 96/91/1 94/90/1 150/90/1 152/91/1
f 129/75/1 131/92/1 155/92/1 153/75/1
f 79/89/1 78/88/1 146/88/1 147/89/1
f 95/77/1 96/91/1 152/91/1 151/77/1
f 132/71/1 130/72/1 154/72/1 156/71/1
f 131/92/1 132/71/1 156/71/1 155/92/1
f 82/82/1 81/81/1 133/81/1 134/82/1
f 86/69/1 85/85/1 137/85/1 138/69/1
f 84/84/1 83/83/1 135/83/1 136/84/1
f 85/85/1 87/80/1 139/80/1 137/85/1
f 90/86/1 89/78/1 141/78/1 142/86/1
f 83/83/1 82/82/1 134/82/1 135/83/1
f 78/88/1 77/73/1 145/73/1 146/88/1
f 88/70/1 86/69/1 138/69/1 140/70/1
f 91/87/1 90/86/1 142/86/1 143/87/1
f 94/90/1 93/76/1 149/76/1 150/90/1
f 81/81/1 84/84/1 136/84/1 133/81/1
f 171/89/1 170/88/1 194/88/1 195/89/1
f 158/82/1 157/81/1 181/81/1 182/82/1
f 180/71/1 178/72/1 202/72/1 204/71/1
f 163/80/1 164/70/1 188/70/1 187/80/1
f 169/73/1 172/74/1 196/74/1 193/73/1
f 177/75/1 179/92/1 203/92/1 201/75/1
f 147/89/1 146/88/1 170/88/1 171/89/1
f 142/86/1 141/78/1 165/78/1 166/86/1
f 155/92/1 156/71/1 180/71/1 179/92/1
f 136/84/1 135/83/1 159/83/1 160/84/1
f 150/90/1 149/76/1 173/76/1 174/90/1
f 143/87/1 142/86/1 166/86/1 167/87/1
f 135/83/1 134/82/1 158/82/1 159/83/1
f 149/76/1 151/77/1 175/77/1 173/76/1
f 141/78/1 144/79/1 168/79/1 165/78/1
f 133/81/1 136/84/1 160/84/1 157/81/1
f 152/91/1 150/90/1 174/90/1 176/91/1
f 144/79/1 143/87/1 167/87/1 168/79/1
f 138/69/1 137/85/1 161/85/1 162/69/1
f 151/77/1 152/91/1 176/91/1 175/77/1
f 146/88/1 145/73/1 169/73/1 170/88/1
f 137/85/1 139/80/1 163/80/1 161/85/1
f 154/72/1 153/75/1 177/75/1 178/72/1
f 148/74/1 147/89/1 171/89/1 172/74/1
f 199/77/1 200/91/1 224/91/1 223/77/1
f 186/69/1 185/85/1 209/85/1 210/69/1
f 192/79/1 191/87/1 215/87/1 216/79/1
f 200/91/1 198/90/1 222/90/1 224/91/1
f 181/81/1 184/84/1 208/84/1 205/81/1
f 189/78/1 192/79/1 216/79/1 213/78/1
f 166/86/1 165/78/1 189/78/1 190/86/1
f 179/92/1 180/71/1 204/71/1 203/92/1
f 160/84/1 159/83/1 183/83/1 184/84/1
f 174/90/1 173/76/1 197/76/1 198/90/1
f 167/87/1 166/86/1 190/86/1 191/87/1
f 159/83/1 158/82/1 182/82/1 183/83/1
f 173/76/1 175/77/1 199/77/1 197/76/1
f 165/78/1 168/79/1 192/79/1 189/78/1
f 157/81/1 160/84/1 184/84/1 181/81/1
f 176/91/1 174/90/1 198/90/1 200/91/1
f 168/79/1 167/87/1 191/87/1 192/79/1
f 162/69/1 161/85/1 185/85/1 186/69/1
f 175/77/1 176/91/1 200/91/1 199/77/1
f 170/88/1 169/73/1 193/73/1 194/88/1
f 161/85/1 163/80/1 187/80/1 185/85/1
f 178/72/1 177/75/1 201/75/1 202/72/1
f 172/74/1 171/89/1 195/89/1 196/74/1
f 164/70/1 162/69/1 186/69/1 188/70/1
f 218/88/1 217/73/1 241/73/1 242/88/1
f 223/77/1 224/91/1 248/91/1 247/77/1
f 210/69/1 209/85/1 233/85/1 234/69/1
f 216/79/1 215/87/1 239/87/1 240/79/1
f 224/91/1 222/90/1 246/90/1 248/91/1
f 205/81/1 208/84/1 232/84/1 229/81/1
f 194/88/1 193/73/1 217/73/1 218/88/1
f 185/85/1 187/80/1 211/80/1 209/85/1
f 202/72/1 201/75/1 225/75/1 226/72/1
f 196/74/1 195/89/1 219/89/1 220/74/1
f 188/70/1 186/69/1 210/69/1 212/70/1
f 201/75/1 203/92/1 227/92/1 225/75/1
f 193/73/1 196/74/1 220/74/1 217/73/1
f 187/80/1 188/70/1 212/70/1 211/80/1
f 204/71/1 202/72/1 226/72/1 228/71/1
f 182/82/1 181/81/1 205/81/1 206/82/1
f 195/89/1 194/88/1 218/88/1 219/89/1
f 190/86/1 189/78/1 213/78/1 214/86/1
f 203/92/1 204/71/1 228/71/1 227/92/1
f 184/84/1 183/83/1 207/83/1 208/84/1
f 198/90/1 197/76/1 221/76/1 222/90/1
f 191/87/1 190/86/1 214/86/1 215/87/1
f 183/83/1 182/82/1 206/82/1 207/83/1
f 197/76/1 199/77/1 223/77/1 221/76/1
f 209/85/1 211/80/1 235/80/1 233/85/1
f 226/72/1 225/75/1 249/75/1 250/72/1
f 220/74/1 219/89/1 243/89/1 244/74/1
f 212/70/1 210/69/1 234/69/1 236/70/1
f 225/75/1 227/92/1 251/92/1 249/75/1
f 217/73/1 220/74/1 244/74/1 241/73/1
f 211/80/1 212/70/1 236/70/1 235/80/1
f 228/71/1 226/72/1 250/72/1 252/71/1
f 206/82/1 205/81/1 229/81/1 230/82/1
f 219/89/1 218/88/1 242/88/1 243/89/1
f 214/86/1 213/78/1 237/78/1 238/86/1
f 227/92/1 228/71/1 252/71/1 251/92/1
f 208/84/1 207/83/1 231/83/1 232/84/1
f 222/90/1 221/76/1 245/76/1 246/90/1
f 215/87/1 214/86/1 238/86/1 239/87/1
f 207/83/1 206/82/1 230/82/1 231/83/1
f 221/76/1 223/77/1 247/77/1 245/76/1
f 213/78/1 216/79/1 240/79/1 237/78/1
f 253/85/24 254/80/24 255/70/24 256/69/24
f 235/80/23 254/80/23 253/85/23 233/85/23
f 236/70/1 255/70/1 254/80/1 235/80/1
f 234/69/25 256/69/25 255/70/25 236/70/25
f 233/85/26 253/85/26 256/69/26 234/69/26
f 257/84/23 258/83/23 259/82/23 260/81/23
f 231/83/22 258/83/22 257/84/22 232/84/22
f 230/82/1 259/82/1 258/83/1 231/83/1
f 229/81/24 260/81/24 259/82/24 230/82/24
f 232/84/26 257/84/26 260/81/26 229/81/26
f 261/77/1 262/91/1 263/90/1 264/76/1
f 248/91/25 262/91/25 261/77/25 247/77/25
f 246/90/24 263/90/24 262/91/24 248/91/24
f 245/76/23 264/76/23 263/90/23 246/90/23
f 247/77/22 261/77/22 264/76/22 245/76/22
f 265/88/22 266/73/22 267/74/22 268/89/22
f 241/73/25 266/73/25 265/88/25 242/88/25
f 244/74/1 267/74/1 266/73/1 241/73/1
f 243/89/23 268/89/23 267/74/23 244/74/23
f 242/88/26 265/88/26 268/89/26 243/89/26
f 269/78/25 270/79/25 271/87/25 272/86/25
f 240/79/24 270/79/24 269/78/24 237/78/24
f 239/87/1 271/87/1 270/79/1 240/79/1
f 238/86/22 272/86/22 271/87/22 239/87/22
f 237/78/26 269/78/26 272/86/26 238/86/26
f 273/75/26 274/92/26 275/71/26 276/72/26
f 251/92/25 274/92/25 273/75/25 249/75/25
f 252/71/22 275/71/22 274/92/22 251/92/22
f 250/72/23 276/72/23 275/71/23 252/71/23
f 249/75/24 273/75/24 276/72/24 250/72/24
usemtl inset
f 74/66/27 73/65/27 125/65/27 126/66/27
f 60/3/28 59/4/28 103/4/28 104/3/28
f 66/1/29 65/2/29 109/2/29 110/1/29
f 71/62/30 72/63/30 124/63/30 123/62/30
f 58/9/31 57/10/31 101/10/31 102/9/31
f 64/56/32 62/5/32 106/5/32 86/69/32 88/70/32 108/56/32
f 67/57/33 66/1/33 110/1/33 111/57/33
f 59/4/34 58/9/34 102/9/34 103/4/34
f 73/65/35 75/67/35 127/67/35 125/65/35
f 65/2/36 68/58/36 112/58/36 109/2/36
f 57/10/37 60/3/37 104/3/37 101/10/37
f 76/68/38 74/66/38 126/66/38 128/68/38
f 54/51/39 53/52/39 117/52/39 118/51/39
f 68/58/40 67/57/40 111/57/40 112/58/40
f 62/5/41 61/6/41 105/6/41 106/5/41
f 75/67/42 76/68/42 128/68/42 127/67/42
f 56/7/43 55/8/43 119/8/43 120/7/43
f 70/60/44 69/59/44 121/59/44 122/60/44
f 61/6/45 63/55/45 107/55/45 105/6/45
f 53/52/46 56/7/46 120/7/46 117/52/46
f 69/59/47 71/62/47 123/62/47 121/59/47
f 55/8/48 54/51/48 118/51/48 119/8/48
f 72/63/49 70/60/49 122/60/49 124/63/49
f 81/81/23 82/82/23 102/9/23 101/10/23
f 83/83/23 84/84/23 104/3/23 103/4/23
f 82/82/23 83/83/23 103/4/23 102/9/23
f 84/84/23 81/81/23 101/10/23 104/3/23
f 85/85/24 86/69/24 106/5/24 105/6/24
f 87/80/24 85/85/24 105/6/24 107/55/24
f 89/78/25 90/86/25 114/1/25 113/2/25
f 90/86/25 91/87/25 115/57/25 114/1/25
f 92/79/25 89/78/25 113/2/25 116/58/25
f 91/87/25 92/79/25 116/58/25 115/57/25
f 77/73/22 78/88/22 118/51/22 117/52/22
f 79/89/22 80/74/22 120/7/22 119/8/22
f 80/74/22 77/73/22 117/52/22 120/7/22
f 78/88/22 79/89/22 119/8/22 118/51/22
f 93/76/1 94/90/1 122/60/1 121/59/1
f 95/77/1 93/76/1 121/59/1 123/62/1
f 94/90/1 96/91/1 124/63/1 122/60/1
f 96/91/1 95/77/1 123/62/1 124/63/1
f 97/75/26 98/72/26 126/66/26 125/65/26
f 99/92/26 97/75/26 125/65/26 127/67/26
f 98/72/26 100/71/26 128/68/26 126/66/26
f 100/71/26 99/92/26 127/67/26 128/68/26
f 63/55/50 64/56/50 108/56/50 88/70/50 87/80/50 107/55/50
